<svg id="Layer_1" data-name="Layer 1" xmlns="http://www.w3.org/2000/svg" viewBox="0 0 117.84 117.84"><defs><style>.cls-1,.cls-2{fill:#1d1d1b;}.cls-2{stroke:#1d1d1b;stroke-miterlimit:10;stroke-width:0.5px;}</style></defs><title>logo</title><path class="cls-1" d="M16.29,16.27h11c4.71,0,7.17,2.16,7.17,6.15s-2.46,6.69-7,6.69H19.47v8.58H16.29ZM27.12,26.35c3.15,0,4.2-1.71,4.2-3.87S30.12,19,27.69,19H19.47v7.32Z"/><path class="cls-1" d="M49.39,16.27H66.61V19h-14v6.21H66.19V28H52.57v6.93H66.91v2.76H49.39Z"/><path class="cls-1" d="M83.48,20.65h-.06v17H80.24V16.27h3.69l13.77,17h0v-17h3.19V37.69H97.25Z"/><path class="cls-1" d="M16.41,46.68h3.18V60.39c0,3.87,2.58,5.49,6.51,5.49s6.51-1.62,6.51-5.49V46.68h3.18V60q0,8.64-9.69,8.64T16.41,60Z"/><path class="cls-1" d="M52.44,61.05c.09,3.84,3.63,4.83,6.9,4.83s5.79-1.32,5.79-3.63c0-2-1.5-2.73-4-3.18l-4.86-.81c-2.55-.39-6.36-1.44-6.36-5.61,0-3.93,3.09-6.51,8.58-6.51,4.32,0,8.79,1.56,9.12,6.72H64.44c-.24-1.65-1.23-4-6.36-4-2.31,0-5,1-5,3.51,0,1.32.87,2.37,3.51,2.82l5.25.9c1.68.33,6.45,1.08,6.45,5.49,0,5.43-4.89,7-9.21,7-4.83,0-9.84-1.71-9.84-7.59Z"/><path class="cls-1" d="M82.11,47.52H94c4.56,0,6.6,2,6.6,5.37a4.37,4.37,0,0,1-3.12,4.53v.06c2.49.57,4,2.16,4,5.28s-2.13,6.18-6.78,6.18H82.11ZM94,56.37c2.37,0,3.48-1.29,3.48-3,0-1.95-1-3.09-3.66-3.09H85.29v6.09Zm-.06,9.81c3.54,0,4.47-1.83,4.47-3.63s-1-3.42-4.2-3.42H85.29v7.05Z"/><polygon class="cls-1" points="31.97 82.74 31.97 80.13 16.41 80.13 16.41 82.74 22.6 82.74 22.6 98.96 16.41 98.96 16.41 101.57 22.6 101.57 22.6 101.57 25.78 101.57 25.78 101.57 31.97 101.57 31.97 98.96 25.78 98.96 25.78 82.74 31.97 82.74"/><path class="cls-1" d="M50.08,84.53H50v17H46.84V80.15h3.69l13.76,17h.07v-17h3.18v21.42h-3.7Z"/><path class="cls-1" d="M88.31,91.13l-3.9,3.45v7H81.23V80.15h3.18V90.92l12-10.77h4.5L90.71,89l10.74,12.54H97.07Z"/><rect class="cls-2" x="16.41" y="41.8" width="84.4" height="1"/><rect class="cls-2" x="15.1" y="74.45" width="88.45" height="1" transform="translate(-32.68 49.02) rotate(-35.9)"/></svg>